<svg width="64" height="40" viewBox="0 0 64 40" fill="none" xmlns="http://www.w3.org/2000/svg">
<path fill-rule="evenodd" clip-rule="evenodd" d="M30.9431 10.3171L34.8169 30.4553L38.2527 10.3171H47.5259L50.9079 30.4553L54.7816 10.3171H64L57.2361 39.9999H46.817L42.8898 18.0962L38.9621 39.9999H28.4886L21.7247 10.3171H30.9431ZM23.8934 0L22.5295 6.40047H19.9657C16.7474 6.40047 16.0385 6.56593 15.4927 8.82726L15.2199 10.3173H21.7113L20.3469 16.7723H13.8559L9.00082 40H0L4.85511 16.7723H0.81864L2.18257 10.3173H6.16465L6.60116 8.44089C8.01948 1.43455 11.4014 0 19.2563 0H23.8934Z" fill="#FDFCFB"/>
</svg>
